<?xml version="1.0"?>
<svg width="1919.9999999999998" height="1200" xmlns="http://www.w3.org/2000/svg" xmlns:svg="http://www.w3.org/2000/svg">
 <defs>
  <marker id="arrow" markerWidth="10" markerHeight="10" refX="9" refY="3.5"
          orient="auto-start-reverse" markerUnits="strokeWidth">
   <path d="M0,0 L10,3.5 L0,7 Z" fill="#000"/>
  </marker>
  <style>text { font-family: Arial, Helvetica, sans-serif; fill: #000; }
      .title { font-size: 34px; font-weight: 700; }
      .group-title { font-size: 25px; font-weight: 700; }
      .node-title { font-size: 20px; font-weight: 700; }
      .body { font-size: 17px; }
      .small { font-size: 15px; }
      .group { fill: #fff; stroke: #000; stroke-width: 2.4; }
      .node { fill: #fff; stroke: #000; stroke-width: 2; }
      .wire { fill: none; stroke: #000; stroke-width: 2; marker-end: url(#arrow); }
      .tap { fill: none; stroke: #000; stroke-width: 2; }
      .bind { fill: none; stroke: #000; stroke-width: 2; stroke-dasharray: 8 6; marker-end: url(#arrow); }
      .bidir { fill: none; stroke: #000; stroke-width: 2; marker-start: url(#arrow); marker-end: url(#arrow); }</style>
 </defs>
 <!-- Active AXI4-Lite agent. Driver and monitor meet only at the interface. -->
 <!-- UVM RAL frontdoor and prediction are intentionally separate. -->
 <!-- Observer path: interface is the shared tap, then fans out to passive consumers. -->
 <!-- Explicit interfaces between environment and DUT. -->
 <!-- DUT and external memory model. -->
 <!-- SVA checker sources are explicitly matched to their checked interfaces. -->
 <g class="layer">
  <title>Layer 1</title>
  <rect fill="#fff" height="1200" id="svg_2" transform="matrix(1 0 0 1 0 0)" width="1920"/>
  <text class="title" id="svg_3" text-anchor="middle" x="960" y="45">UVM Verification Environment Topology</text>
  <rect class="node" height="72" id="svg_4" width="350" x="785" y="68"/>
  <text class="node-title" id="svg_5" text-anchor="middle" x="960" y="99">dma_test_base</text>
  <text class="body" id="svg_6" text-anchor="middle" x="960" y="126">tests / sequences</text>
  <path class="wire" d="m960,140l0,28" id="svg_7"/>
  <rect class="group" height="415" id="svg_8" width="1800" x="60" y="168"/>
  <text class="group-title" id="svg_9" text-anchor="middle" x="960" y="200">dma_env</text>
  <rect class="node" height="325" id="svg_10" width="300" x="90" y="220"/>
  <text class="node-title" id="svg_11" text-anchor="middle" x="240" y="250">axil_agent (active)</text>
  <rect class="node" height="58" id="svg_12" width="240" x="120" y="280"/>
  <text class="body" id="svg_13" text-anchor="middle" x="240" y="316">sequencer</text>
  <rect class="node" height="58" id="svg_14" width="240" x="120" y="370"/>
  <text class="body" id="svg_15" text-anchor="middle" x="240" y="406">driver</text>
  <rect class="node" height="58" id="svg_16" width="240" x="120" y="465"/>
  <text class="body" id="svg_17" text-anchor="middle" x="240" y="501">monitor</text>
  <path class="wire" d="m240,338l0,32" id="svg_18"/>
  <rect class="node" height="72" id="svg_19" width="280" x="470" y="220"/>
  <text class="node-title" id="svg_20" text-anchor="middle" x="610" y="250">dma_reg_block</text>
  <text class="body" id="svg_21" text-anchor="middle" x="610" y="276">(UVM RAL)</text>
  <rect class="node" height="62" id="svg_22" width="280" x="470" y="325"/>
  <text class="body" id="svg_23" text-anchor="middle" x="610" y="363">dma_axil_reg_adapter</text>
  <rect class="node" height="62" id="svg_24" width="280" x="470" y="455"/>
  <text class="body" id="svg_25" text-anchor="middle" x="610" y="493">uvm_reg_predictor</text>
  <path class="wire" d="m610,292l0,33" id="svg_26"/>
  <path class="wire" d="m470,356l-19.84,-0.26l-0.16,-46.74l-90,0" id="svg_27"/>
  <text class="small" font-size="15" id="svg_28" text-anchor="end" transform="matrix(1 0 0 1 61.0854 -57.7454)" x="394" y="362">frontdoor</text>
  <path class="wire" d="m360,494l110,0" id="svg_29"/>
  <path class="wire" d="m610,455l0,-40l170,0l0,-159l-30,0" id="svg_30"/>
  <text class="small" id="svg_31" x="632" y="438">prediction</text>
  <rect class="node" height="82" id="svg_32" width="230" x="810" y="270"/>
  <text class="node-title" id="svg_33" text-anchor="middle" x="925" y="318">dma_coverage</text>
  <path class="wire" d="m360,494l70,0l0,46l444,-1l0,-186" id="svg_34" transform="matrix(1 0 0 1 0 0)"/>
  <rect class="node" height="78" id="svg_35" width="300" x="1080" y="235"/>
  <text class="node-title" id="svg_36" text-anchor="middle" x="1230" y="266">dma_observer_monitor</text>
  <text class="body" id="svg_37" text-anchor="middle" x="1230" y="293">(passive)</text>
  <rect class="node" height="68" id="svg_38" width="350" x="1430" y="390"/>
  <text class="node-title" id="svg_39" text-anchor="middle" x="1605" y="419">dma_outstanding_monitor</text>
  <text class="body" id="svg_40" text-anchor="middle" x="1605" y="445">(outstanding_cg)</text>
  <rect class="node" height="108" id="svg_41" width="310" x="1470" y="225"/>
  <text class="node-title" id="svg_42" text-anchor="middle" x="1625" y="257">dma_scoreboard</text>
  <rect class="node" height="42" id="svg_43" width="270" x="1490" y="273"/>
  <text class="small" id="svg_44" text-anchor="middle" x="1625" y="300">dma_ref_model (byte-accurate)</text>
  <path class="wire" d="m1380,274l90,0" id="svg_45"/>
  <rect class="node" height="58" id="svg_46" width="190" x="145" y="610"/>
  <text class="body" id="svg_47" text-anchor="middle" x="240" y="646">AXI4-Lite IF</text>
  <path class="wire" d="m360,399l49,0l-0.26,240l-73.74,0" id="svg_48" transform="matrix(1 0 0 1 0 0)"/>
  <path class="wire" d="m145,639l-65,0l0,-145l40,0" id="svg_49"/>
  <rect class="node" height="58" id="svg_50" transform="matrix(1 0 0 1 65 0)" width="190" x="780" y="610"/>
  <text class="body" id="svg_51" text-anchor="middle" transform="matrix(1 0 0 1 63 -1)" x="875" y="646">irq_if</text>
  <path class="wire" d="m938,610l0,-257" id="svg_52" transform="matrix(1 0 0 1 0 0) matrix(1 0 0 1 0 0)"/>
  <rect class="node" height="58" id="svg_53" width="210" x="1140" y="610"/>
  <text class="body" id="svg_54" text-anchor="middle" x="1245" y="646">dma_observer_if</text>
  <path class="wire" d="m1245,610l0,-260l0,0l0,-35" id="svg_55"/>
  <path class="wire" d="m1350,639l50,0l0,-215l30,0" id="svg_56"/>
  <rect class="group" height="190" id="svg_57" width="690" x="280" y="715"/>
  <text class="group-title" id="svg_58" text-anchor="middle" x="625" y="748">DUT: axi_dma_subsystem</text>
  <rect class="node" height="46" id="svg_59" width="610" x="320" y="770"/>
  <text class="body" id="svg_60" text-anchor="middle" x="625" y="800">dma_desc_manager</text>
  <rect class="node" height="50" id="svg_61" width="610" x="320" y="835"/>
  <text class="node-title" id="svg_62" text-anchor="middle" x="625" y="857">axi_dma</text>
  <text class="small" id="svg_63" text-anchor="middle" x="625" y="878">axi_dma_rd + axis_fifo + axi_dma_wr</text>
  <path class="bidir" d="m240,668l0,122l40,0" id="svg_64"/>
  <text class="small" id="svg_65" transform="matrix(1 0 0 1 1 -39)" x="250" y="735">control / status</text>
  <path class="wire" d="m623.84,712.37l-0.25,-74.75l221.41,-0.61" id="svg_66"/>
  <text class="small" id="svg_67" transform="matrix(1 0 0 1 -24.1052 -66.7064)" x="720" y="696">level interrupt</text>
  <path class="tap" d="m760,715l0,-25.25l484.63,0l0.37,-21.75" id="svg_68"/>
  <text class="small" font-size="15" id="svg_69" text-anchor="middle" transform="matrix(1 0 0 1 26.858 0.735835)" x="1030.37" y="685.86">observed transactions</text>
  <rect class="node" height="62" id="svg_70" transform="matrix(1 0 0 1 -47 0)" width="150" x="70" y="770"/>
  <text class="node-title" id="svg_71" text-anchor="middle" transform="matrix(1 0 0 1 -47 0)" x="145" y="798">reset_if</text>
  <text class="small" id="svg_72" text-anchor="middle" transform="matrix(1 0 0 1 -49 -3)" x="145" y="821">async / sync</text>
  <path class="wire" d="m220,801l60,0" id="svg_73" transform="matrix(1.78333 0 0 1 -219.333 0)"/>
  <rect class="node" height="82" id="svg_74" width="260" x="1110" y="745"/>
  <text class="node-title" id="svg_75" text-anchor="middle" x="1240" y="779">axi_mem_proxy</text>
  <text class="small" id="svg_76" text-anchor="middle" x="1240" y="805">delay / error / backpressure</text>
  <path class="bidir" d="m970,786l140,0" id="svg_77"/>
  <text class="body" id="svg_78" text-anchor="middle" x="1040" y="770">AXI4 Master IF</text>
  <rect class="node" height="62" id="svg_79" width="230" x="1480" y="755"/>
  <text class="node-title" id="svg_80" text-anchor="middle" x="1595" y="783">axi_ram</text>
  <text class="body" id="svg_81" text-anchor="middle" x="1595" y="807">(64 KiB)</text>
  <path class="bidir" d="m1370,786l110,0" id="svg_82"/>
  <rect class="node" height="62" id="svg_83" width="240" x="1120" y="850"/>
  <text class="node-title" id="svg_84" text-anchor="middle" x="1240" y="877">dma_mem_ctrl_if</text>
  <text class="small" id="svg_85" text-anchor="middle" x="1240" y="901">proxy control</text>
  <path class="wire" d="m1240,850l0,-23" id="svg_86"/>
  <rect fill="#fff" height="180" id="svg_87" stroke="#000" stroke-dasharray="10 7" stroke-width="2.2" transform="matrix(1 0 0 1.10497 0 -101.765)" width="1720" x="100" y="970"/>
  <text class="group-title" id="svg_88" text-anchor="middle" transform="matrix(1 0 0 1 -37 5)" x="960" y="1002">SVA Checkers</text>
  <rect class="node" height="72" id="svg_89" width="330" x="210" y="1030"/>
  <text class="node-title" id="svg_90" text-anchor="middle" x="375" y="1061">axi_dma_axil_sva</text>
  <text class="body" id="svg_91" text-anchor="middle" x="375" y="1088">AXI4-Lite protocol</text>
  <rect class="node" height="72" id="svg_92" width="330" x="795" y="1030"/>
  <text class="node-title" id="svg_93" text-anchor="middle" x="960" y="1061">axi_dma_bus_sva</text>
  <text class="body" id="svg_94" text-anchor="middle" x="960" y="1088">AXI4 memory master</text>
  <rect class="node" height="72" id="svg_95" width="330" x="1380" y="1030"/>
  <text class="node-title" id="svg_96" text-anchor="middle" x="1545" y="1061">axi_dma_internal_sva</text>
  <text class="body" id="svg_97" text-anchor="middle" x="1545" y="1088">internal path</text>
  <path class="bind" d="m193,668l0.06,277l181.94,0l0,85" id="svg_98"/>
  <text class="small" id="svg_99" x="255" y="934">AXI4-Lite IF bind</text>
  <path class="bind" d="m1040,786l0,174l0,1l1,70" id="svg_100"/>
  <text class="small" id="svg_101" transform="matrix(1 0 0 1 -1 43)" x="1055" y="957">AXI4 Master IF bind</text>
  <path class="bind" d="m820,885l0,45l725,0l0,100" id="svg_102"/>
  <text class="small" id="svg_103" transform="matrix(1 0 0 1 107 0)" x="1280" y="920">DUT internal bind</text>
  <rect class="node" height="58" id="svg_104" width="330" x="795" y="1122"/>
  <text class="node-title" id="svg_105" text-anchor="middle" x="960" y="1147">dma_sva_ctrl_if</text>
  <text class="small" id="svg_106" text-anchor="middle" x="960" y="1170">checker control</text>
  <path class="bind" d="m795,1136l-36,0l-383,0l-1,-34" id="svg_107" transform="matrix(1 0 0 1 0 0)"/>
  <path class="bind" d="m960,1122l0,-20" id="svg_108"/>
  <path class="bind" d="m1126,1134l47,0l372,0l0,-32" id="svg_109"/>
 </g>
</svg>
